[center]

[img]http://img231.imageshack.us/img231/103/iotyiy.jpg[/img]

Genre : Comedy

Plot : Friends with Kids revolves around a pair of best friends in their 30s who observe the effect of having kids has taken on the couples they know. To avoid that toll, the best friends resolve to have a child and then date other people.


Format : AVI 
Format/Info : Audio Video Interleave 
File size : 873 MiB 
Duration : 1h 44mn 
Overall bit rate : 1 170 Kbps 
Writing application : MEncoder SVN-r33823-4.1.2 
Writing library : MPlayer 

Video 
ID : 0 
Format : xvid 
Codec ID : xvid 
Duration : 1h 44mn 
Bit rate : 1 052 Kbps 
Width : 720 pixels 
Height : 404 pixels 
Display aspect ratio : 16:9 
Frame rate : 23.976 fps 
Bits/(Pixel*Frame) : 0.151 
Stream size : 785 MiB (90%) 

Audio 
ID : 1 
Format : MPEG Audio 
Format version : Version 1 
Format profile : Layer 3 
Mode : Joint stereo 
Mode extension : MS Stereo 
Codec ID : 55 
Codec ID/Hint : MP3 
Duration : 1h 44mn 
Bit rate mode : Variable 
Bit rate : 105 Kbps 
Channel(s) : 2 channels 
Sampling rate : 44.1 KHz 
Compression mode : Lossy 
Stream size : 78.4 MiB (9%) 
Alignment : Aligned on interleaves 
Interleave, duration : 26 ms (0.63 video frame) 
Interleave, preload duration : 158 ms 
Writing library : LAME3.98.4
 
http://www.imdb.com/title/tt1720616/


[img]http://img528.imageshack.us/img528/4552/vlcsnap2011120508h38m20.png[/img]
[img]http://img521.imageshack.us/img521/998/vlcsnap2011120508h38m08.png[/img]
[img]http://img231.imageshack.us/img231/3924/vlcsnap2011120508h39m54.png[/img]
[img]http://img42.imageshack.us/img42/1166/vlcsnap2011120508h39m42.png[/img][/center]